<svg xmlns="http://www.w3.org/2000/svg" xmlns:xlink="http://www.w3.org/1999/xlink" viewBox="0 0 32 21"><path d="M 18.465 19.42 L 6.53 1.524 C 7.278 0.744 8.21 0.273 9.181 0.111 C 10.292 -0.076 11.455 0.143 12.447 0.769 C 12.802 0.984 13.135 1.249 13.438 1.566 L 21.887 10.495 L 16.923 4.058 C 16.682 3.745 16.706 3.302 16.979 3.016 L 18.415 1.518 C 20.301 -0.45 23.372 -0.45 25.258 1.518 L 30.491 6.978 C 32.377 8.946 32.377 12.15 30.491 14.118 L 27.925 16.795 L 27.925 16.795 L 25.358 19.473 C 24.611 20.253 23.662 20.729 22.692 20.89 C 21.58 21.077 20.414 20.833 19.421 20.208 C 19.067 19.993 18.769 19.737 18.465 19.42 Z" fill="rgb(122, 132, 161)"></path><path d="M 18.465 19.378 L 10.01 10.459 L 14.884 16.892 C 15.121 17.205 15.095 17.645 14.823 17.929 L 13.384 19.431 C 11.497 21.399 8.427 21.399 6.541 19.431 L 1.415 13.954 C -0.472 11.986 -0.472 8.795 1.415 6.826 L 3.972 4.158 L 3.969 4.155 L 6.53 1.482 C 7.278 0.702 8.21 0.231 9.181 0.069 C 10.292 -0.118 11.455 0.101 12.447 0.727 C 12.802 0.942 13.135 1.207 13.438 1.524 L 25.358 19.431 C 24.611 20.211 23.662 20.687 22.692 20.848 C 21.58 21.035 20.414 20.791 19.421 20.166 C 19.067 19.951 18.769 19.695 18.465 19.378 Z" fill="rgb(57, 64, 83)"></path><g><defs><linearGradient id="idss10809936205_3g942156379" x1="0.16337626689189189" x2="0.8221600506756758" y1="0.16337626689189194" y2="0.8221600506756757"><stop offset="0" stop-color="rgb(57, 64, 83)" stop-opacity="1"></stop><stop offset="1" stop-color="rgb(122, 132, 161)" stop-opacity="1"></stop></linearGradient></defs><path d="M 18.465 19.378 L 10.01 10.459 L 3.972 4.158 L 3.969 4.155 L 6.53 1.482 C 7.278 0.702 8.21 0.231 9.181 0.069 C 10.292 -0.118 11.455 0.101 12.447 0.727 C 12.802 0.942 13.135 1.207 13.438 1.524 L 21.887 10.453 L 27.925 16.753 L 27.925 16.753 L 25.358 19.431 C 24.611 20.211 23.662 20.687 22.692 20.848 C 21.58 21.035 20.414 20.791 19.421 20.166 C 19.067 19.951 18.769 19.695 18.465 19.378 Z" fill="url(#idss10809936205_3g942156379)"></path></g></svg>